<svg width="62" height="50" viewBox="0 0 62 50" fill="none" xmlns="http://www.w3.org/2000/svg">
<g clip-path="url(#clip0_6_114)">
<path d="M30.897 50.303C22.766 50.303 14.635 50.303 6.505 50.303C6.478 50.303 6.447 50.304 6.415 50.304C2.872 50.304 0 47.432 0 43.889C0 43.857 0 43.826 0.001 43.794V43.799C0.0723333 34.3637 0.0723333 24.9223 0.001 15.475C0.001 15.464 0.001 15.452 0.001 15.439C0.001 11.886 2.881 9.006 6.434 9.006C22.767 9.006 39.082 9.006 55.415 9.006C55.497 9.002 55.593 9 55.69 9C59.085 9 61.837 11.752 61.837 15.147C61.837 15.25 61.834 15.352 61.829 15.453L61.83 15.439V43.799C61.837 43.908 61.841 44.035 61.841 44.164C61.841 47.559 59.089 50.311 55.694 50.311C55.59 50.311 55.486 50.308 55.383 50.303L55.398 50.304L30.897 50.303ZM30.897 44.138C30.939 44.138 30.99 44.139 31.04 44.139C39.014 44.139 45.479 37.674 45.479 29.7C45.479 21.726 39.014 15.261 31.04 15.261C23.078 15.261 16.622 21.705 16.601 29.661V29.663C16.65 37.548 22.988 43.936 30.849 44.066H30.861L30.897 44.138ZM12.384 19.316C12.345 18.195 11.436 17.298 10.313 17.279H10.311C9.176 17.279 8.256 18.199 8.256 19.334C8.256 20.469 9.176 21.389 10.311 21.389C11.448 21.369 12.364 20.453 12.384 19.318V19.316Z" fill="#CCBA8D"/>
<path d="M42.28 6.16506H19.532C19.889 4.73506 20.211 3.35906 20.568 1.98306C20.646 0.853064 21.582 -0.0339355 22.725 -0.0339355C22.859 -0.0339355 22.991 -0.0219355 23.118 0.00206446L23.105 6.4455e-05H38.938C39.008 -0.00793555 39.089 -0.0129355 39.17 -0.0129355C40.219 -0.0129355 41.085 0.766065 41.224 1.77606L41.225 1.78706C41.565 3.07406 41.886 4.36006 42.208 5.64706C42.244 5.80806 42.244 5.96906 42.279 6.16506H42.28Z" fill="#CCBA8D"/>
<path d="M30.861 43.799C22.902 43.778 16.459 37.322 16.459 29.36C16.459 21.386 22.924 14.921 30.898 14.921C38.872 14.921 45.337 21.386 45.337 29.36C45.337 29.41 45.337 29.46 45.336 29.511V29.503C45.215 37.412 38.785 43.78 30.863 43.799H30.861ZM30.861 39.671C36.556 39.671 41.172 35.055 41.172 29.36C41.172 23.665 36.556 19.049 30.861 19.049C25.179 19.049 20.57 23.645 20.55 29.322V29.324C20.55 29.345 20.55 29.371 20.55 29.396C20.55 35.071 25.15 39.671 30.825 39.671C30.863 39.671 30.901 39.671 30.938 39.67H30.932L30.861 39.671Z" fill="#CCBA8D"/>
<path d="M12.384 19.049C12.365 20.174 11.468 21.083 10.35 21.122H10.346C9.211 21.122 8.291 20.202 8.291 19.067C8.291 17.932 9.211 17.012 10.346 17.012C11.455 17.05 12.345 17.94 12.383 19.046V19.05L12.384 19.049Z" fill="#BDAE82"/>
<path d="M31.129 21.1401C35.507 21.2841 39.019 24.8011 39.152 29.1691V29.1821C39.154 29.2201 39.156 29.2651 39.156 29.3111C39.156 30.4431 38.272 31.3681 37.156 31.4341H37.15C37.145 31.4341 37.138 31.4341 37.132 31.4341C35.987 31.4341 35.059 30.5061 35.059 29.3611C35.02 27.1091 33.215 25.2921 30.972 25.2331H30.966C30.949 25.2331 30.93 25.2341 30.91 25.2341C29.785 25.2341 28.873 24.3221 28.873 23.1971C28.873 23.1651 28.874 23.1341 28.875 23.1021V23.1061C28.929 22.0051 29.836 21.1321 30.946 21.1321C31.01 21.1321 31.073 21.1351 31.135 21.1401L31.127 21.1391L31.129 21.1401Z" fill="#CCBA8D"/>
</g>
<defs>
<clipPath id="clip0_6_114">
<rect width="62" height="50" fill="white"/>
</clipPath>
</defs>
</svg>
